<svg width="100" height="100" viewBox="0 0 100 100" fill="none" xmlns="http://www.w3.org/2000/svg">
<circle cx="50" cy="50" r="50" fill="#00E600"/>
<path d="M42 18C40.9391 18 39.9217 18.4214 39.1716 19.1716C38.4214 19.9217 38 20.9391 38 22V38H22C20.9391 38 19.9217 38.4214 19.1716 39.1716C18.4214 39.9217 18 40.9391 18 42V58C18 59.0609 18.4214 60.0783 19.1716 60.8284C19.9217 61.5786 20.9391 62 22 62H38V78C38 79.0609 38.4214 80.0783 39.1716 80.8284C39.9217 81.5786 40.9391 82 42 82H58C59.0609 82 60.0783 81.5786 60.8284 80.8284C61.5786 80.0783 62 79.0609 62 78V62H78C79.0609 62 80.0783 61.5786 80.8284 60.8284C81.5786 60.0783 82 59.0609 82 58V42C82 40.9391 81.5786 39.9217 80.8284 39.1716C80.0783 38.4214 79.0609 38 78 38H62V22C62 20.9391 61.5786 19.9217 60.8284 19.1716C60.0783 18.4214 59.0609 18 58 18H42Z" fill="white"/>
<path d="M35 53.2478H40.0896C40.3543 53.2478 40.5887 53.0768 40.6694 52.8245L45.2758 38.4234C45.4718 37.8104 46.3612 37.8813 46.4574 38.5177L49.8642 61.0023C49.9586 61.6244 50.8193 61.7121 51.0372 61.1219L56.5238 46.2562C56.7244 45.7129 57.4984 45.7299 57.6746 46.2814L59.7675 52.8245C59.8481 53.0768 60.0825 53.2478 60.3473 53.2478H65.437" stroke="#00E600" stroke-width="4" stroke-linecap="round"/>
</svg>
